<mxfile><diagram id="81bfyEdujccl6jU4aQsM" name="Page-1"><mxGraphModel dx="1637" dy="1295" grid="1" gridSize="10" guides="1" tooltips="1" connect="1" arrows="1" fold="1" page="0" pageScale="1" pageWidth="850" pageHeight="1100" background="none" math="0" shadow="0"><root><mxCell id="0"/><mxCell id="1" parent="0"/><mxCell id="2" value="Genre" style="rounded=0;whiteSpace=wrap;html=1;fillColor=#a20025;fontColor=#ffffff;strokeColor=#6F0000;" parent="1" vertex="1"><mxGeometry x="500" y="390" width="120" height="60" as="geometry"/></mxCell><mxCell id="28" style="edgeStyle=none;html=1;exitX=1;exitY=0.5;exitDx=0;exitDy=0;entryX=0;entryY=0.5;entryDx=0;entryDy=0;strokeColor=default;strokeWidth=3;" parent="1" source="3" target="6" edge="1"><mxGeometry relative="1" as="geometry"/></mxCell><mxCell id="3" value="User" style="rounded=0;whiteSpace=wrap;html=1;fillColor=#a20025;fontColor=#ffffff;strokeColor=#6F0000;" parent="1" vertex="1"><mxGeometry x="150" y="80" width="120" height="60" as="geometry"/></mxCell><mxCell id="22" style="edgeStyle=none;html=1;exitX=1;exitY=0.5;exitDx=0;exitDy=0;entryX=0;entryY=0.5;entryDx=0;entryDy=0;strokeColor=default;strokeWidth=3;" parent="1" source="4" target="20" edge="1"><mxGeometry relative="1" as="geometry"/></mxCell><mxCell id="56" value="" style="edgeStyle=none;html=1;" edge="1" parent="1" source="4" target="23"><mxGeometry relative="1" as="geometry"/></mxCell><mxCell id="4" value="Moive" style="rounded=0;whiteSpace=wrap;html=1;fillColor=#a20025;fontColor=#ffffff;strokeColor=#6F0000;gradientColor=none;" parent="1" vertex="1"><mxGeometry x="150" y="390" width="120" height="60" as="geometry"/></mxCell><mxCell id="29" style="edgeStyle=none;html=1;exitX=0;exitY=0.5;exitDx=0;exitDy=0;entryX=1;entryY=0.5;entryDx=0;entryDy=0;strokeColor=default;strokeWidth=3;" parent="1" source="5" target="6" edge="1"><mxGeometry relative="1" as="geometry"/></mxCell><mxCell id="5" value="Account" style="rounded=0;whiteSpace=wrap;html=1;fillColor=#a20025;fontColor=#ffffff;strokeColor=#6F0000;" parent="1" vertex="1"><mxGeometry x="500" y="80" width="120" height="60" as="geometry"/></mxCell><mxCell id="6" value="Has an" style="rhombus;whiteSpace=wrap;html=1;fillColor=#e51400;fontColor=#ffffff;strokeColor=#B20000;" parent="1" vertex="1"><mxGeometry x="350" y="70" width="80" height="80" as="geometry"/></mxCell><mxCell id="11" value="Password" style="ellipse;whiteSpace=wrap;html=1;fillColor=#fa6800;fontColor=#000000;strokeColor=#C73500;" parent="1" vertex="1"><mxGeometry x="660" y="70" width="120" height="80" as="geometry"/></mxCell><mxCell id="12" value="&lt;u&gt;&lt;b&gt;ID&lt;/b&gt;&lt;/u&gt;" style="ellipse;whiteSpace=wrap;html=1;fillColor=#fa6800;fontColor=#000000;strokeColor=#C73500;" parent="1" vertex="1"><mxGeometry x="500" y="-40" width="120" height="80" as="geometry"/></mxCell><mxCell id="13" value="&lt;u&gt;Email&lt;/u&gt;" style="ellipse;whiteSpace=wrap;html=1;fillColor=#fa6800;fontColor=#000000;strokeColor=#C73500;" parent="1" vertex="1"><mxGeometry x="500" y="180" width="120" height="80" as="geometry"/></mxCell><mxCell id="16" value="" style="endArrow=none;html=1;strokeColor=default;exitX=0.5;exitY=1;exitDx=0;exitDy=0;entryX=0.5;entryY=0;entryDx=0;entryDy=0;fontStyle=0;strokeWidth=3;" parent="1" source="12" target="5" edge="1"><mxGeometry width="50" height="50" relative="1" as="geometry"><mxPoint x="470" y="40" as="sourcePoint"/><mxPoint x="580" y="40" as="targetPoint"/></mxGeometry></mxCell><mxCell id="17" value="" style="endArrow=none;html=1;strokeColor=default;exitX=1;exitY=0.5;exitDx=0;exitDy=0;entryX=0;entryY=0.5;entryDx=0;entryDy=0;fontStyle=0;strokeWidth=3;" parent="1" target="11" edge="1"><mxGeometry width="50" height="50" relative="1" as="geometry"><mxPoint x="620" y="109.5" as="sourcePoint"/><mxPoint x="730" y="109.5" as="targetPoint"/></mxGeometry></mxCell><mxCell id="18" value="" style="endArrow=none;html=1;strokeColor=default;exitX=0.5;exitY=1;exitDx=0;exitDy=0;entryX=0.5;entryY=0;entryDx=0;entryDy=0;fontStyle=0;strokeWidth=3;" parent="1" source="5" target="13" edge="1"><mxGeometry width="50" height="50" relative="1" as="geometry"><mxPoint x="540" y="180" as="sourcePoint"/><mxPoint x="650" y="180" as="targetPoint"/></mxGeometry></mxCell><mxCell id="19" value="Watches" style="rhombus;whiteSpace=wrap;html=1;fillColor=#e51400;fontColor=#ffffff;strokeColor=#B20000;" parent="1" vertex="1"><mxGeometry x="170" y="230" width="80" height="80" as="geometry"/></mxCell><mxCell id="20" value="Has A" style="rhombus;whiteSpace=wrap;html=1;fillColor=#e51400;fontColor=#ffffff;strokeColor=#B20000;" parent="1" vertex="1"><mxGeometry x="350" y="380" width="80" height="80" as="geometry"/></mxCell><mxCell id="21" value="" style="endArrow=none;html=1;strokeColor=default;entryX=0;entryY=0.5;entryDx=0;entryDy=0;fontStyle=0;strokeWidth=3;exitX=1;exitY=0.5;exitDx=0;exitDy=0;" parent="1" source="20" target="2" edge="1"><mxGeometry width="50" height="50" relative="1" as="geometry"><mxPoint x="440" y="390.5" as="sourcePoint"/><mxPoint x="510" y="390" as="targetPoint"/></mxGeometry></mxCell><mxCell id="23" value="Is Saved to" style="rhombus;whiteSpace=wrap;html=1;fillColor=#e51400;fontColor=#ffffff;strokeColor=#B20000;" parent="1" vertex="1"><mxGeometry x="170" y="520" width="80" height="80" as="geometry"/></mxCell><mxCell id="24" value="My Stuff" style="rounded=0;whiteSpace=wrap;html=1;fillColor=#a20025;fontColor=#ffffff;strokeColor=#6F0000;" parent="1" vertex="1"><mxGeometry x="150" y="660" width="120" height="60" as="geometry"/></mxCell><mxCell id="25" value="" style="endArrow=none;html=1;strokeColor=default;exitX=0.5;exitY=1;exitDx=0;exitDy=0;entryX=0.5;entryY=0;entryDx=0;entryDy=0;fontStyle=0;strokeWidth=0.75;" parent="1" source="3" target="19" edge="1"><mxGeometry width="50" height="50" relative="1" as="geometry"><mxPoint x="280" y="120" as="sourcePoint"/><mxPoint x="360" y="120" as="targetPoint"/></mxGeometry></mxCell><mxCell id="27" value="" style="endArrow=none;html=1;strokeColor=default;exitX=0.5;exitY=0;exitDx=0;exitDy=0;entryX=0.5;entryY=1;entryDx=0;entryDy=0;fontStyle=0;strokeWidth=0.75;" parent="1" source="4" target="19" edge="1"><mxGeometry width="50" height="50" relative="1" as="geometry"><mxPoint x="220" y="150" as="sourcePoint"/><mxPoint x="220" y="240" as="targetPoint"/></mxGeometry></mxCell><mxCell id="30" value="&lt;u&gt;&lt;b&gt;ID&lt;/b&gt;&lt;/u&gt;" style="ellipse;whiteSpace=wrap;html=1;fillColor=#fa6800;fontColor=#000000;strokeColor=#C73500;" parent="1" vertex="1"><mxGeometry x="150" y="-40" width="120" height="80" as="geometry"/></mxCell><mxCell id="36" value="Title" style="ellipse;whiteSpace=wrap;html=1;fillColor=#fa6800;fontColor=#000000;strokeColor=#C73500;" parent="1" vertex="1"><mxGeometry x="-20" y="270" width="120" height="80" as="geometry"/></mxCell><mxCell id="37" value="" style="endArrow=none;html=1;strokeColor=default;entryX=1;entryY=0.5;entryDx=0;entryDy=0;fontStyle=0;strokeWidth=3;exitX=0;exitY=0;exitDx=0;exitDy=0;" parent="1" source="4" target="36" edge="1"><mxGeometry width="50" height="50" relative="1" as="geometry"><mxPoint x="440.0000000000002" y="430" as="sourcePoint"/><mxPoint x="530.0000000000002" y="430" as="targetPoint"/></mxGeometry></mxCell><mxCell id="38" value="" style="endArrow=none;html=1;strokeColor=default;entryX=0.5;entryY=1;entryDx=0;entryDy=0;fontStyle=0;strokeWidth=3;exitX=0.5;exitY=0;exitDx=0;exitDy=0;" parent="1" source="3" target="30" edge="1"><mxGeometry width="50" height="50" relative="1" as="geometry"><mxPoint x="450.0000000000002" y="440" as="sourcePoint"/><mxPoint x="540.0000000000002" y="440" as="targetPoint"/></mxGeometry></mxCell><mxCell id="39" value="Name" style="ellipse;whiteSpace=wrap;html=1;fillColor=#fa6800;fontColor=#000000;strokeColor=#C73500;" parent="1" vertex="1"><mxGeometry x="660" y="380" width="120" height="80" as="geometry"/></mxCell><mxCell id="40" value="" style="endArrow=none;html=1;strokeColor=default;entryX=0;entryY=0.5;entryDx=0;entryDy=0;fontStyle=0;strokeWidth=3;exitX=1;exitY=0.5;exitDx=0;exitDy=0;" parent="1" source="2" target="39" edge="1"><mxGeometry width="50" height="50" relative="1" as="geometry"><mxPoint x="440.0000000000002" y="430" as="sourcePoint"/><mxPoint x="530.0000000000002" y="430" as="targetPoint"/></mxGeometry></mxCell><mxCell id="41" value="Rating" style="ellipse;whiteSpace=wrap;html=1;fillColor=#fa6800;fontColor=#000000;strokeColor=#C73500;" parent="1" vertex="1"><mxGeometry x="-20" y="490" width="120" height="80" as="geometry"/></mxCell><mxCell id="42" value="" style="endArrow=none;html=1;strokeColor=default;entryX=1;entryY=0.5;entryDx=0;entryDy=0;fontStyle=0;strokeWidth=3;exitX=0;exitY=1;exitDx=0;exitDy=0;" parent="1" source="4" target="41" edge="1"><mxGeometry width="50" height="50" relative="1" as="geometry"><mxPoint x="160" y="400" as="sourcePoint"/><mxPoint x="110" y="360" as="targetPoint"/></mxGeometry></mxCell><mxCell id="43" value="Capacity" style="ellipse;whiteSpace=wrap;html=1;fillColor=#fa6800;fontColor=#000000;strokeColor=#C73500;" parent="1" vertex="1"><mxGeometry x="150" y="780" width="120" height="80" as="geometry"/></mxCell><mxCell id="45" value="" style="endArrow=none;html=1;strokeColor=default;exitX=0.5;exitY=0;exitDx=0;exitDy=0;entryX=0.5;entryY=1;entryDx=0;entryDy=0;fontStyle=0;strokeWidth=0.75;" parent="1" source="24" target="23" edge="1"><mxGeometry width="50" height="50" relative="1" as="geometry"><mxPoint x="230" y="410" as="sourcePoint"/><mxPoint x="230" y="330" as="targetPoint"/></mxGeometry></mxCell><mxCell id="46" value="" style="endArrow=none;html=1;strokeColor=default;entryX=0.5;entryY=1;entryDx=0;entryDy=0;fontStyle=0;strokeWidth=3;exitX=0.5;exitY=0;exitDx=0;exitDy=0;" parent="1" source="43" target="24" edge="1"><mxGeometry width="50" height="50" relative="1" as="geometry"><mxPoint x="160" y="460" as="sourcePoint"/><mxPoint x="110" y="520" as="targetPoint"/></mxGeometry></mxCell><mxCell id="47" value="&lt;u&gt;&lt;b&gt;ID&lt;/b&gt;&lt;/u&gt;" style="ellipse;whiteSpace=wrap;html=1;fillColor=#fa6800;fontColor=#000000;strokeColor=#C73500;" parent="1" vertex="1"><mxGeometry x="330" y="650" width="120" height="80" as="geometry"/></mxCell><mxCell id="48" value="" style="endArrow=none;html=1;strokeColor=default;entryX=1;entryY=0.5;entryDx=0;entryDy=0;fontStyle=0;strokeWidth=3;exitX=0;exitY=0.5;exitDx=0;exitDy=0;" parent="1" source="47" target="24" edge="1"><mxGeometry width="50" height="50" relative="1" as="geometry"><mxPoint x="220.00000000000023" y="790" as="sourcePoint"/><mxPoint x="220.00000000000023" y="730" as="targetPoint"/></mxGeometry></mxCell><mxCell id="49" value="" style="endArrow=none;html=1;strokeColor=default;entryX=0;entryY=0.5;entryDx=0;entryDy=0;fontStyle=0;strokeWidth=3;exitX=1;exitY=0.5;exitDx=0;exitDy=0;" parent="1" source="50" target="3" edge="1"><mxGeometry width="50" height="50" relative="1" as="geometry"><mxPoint x="60" y="170" as="sourcePoint"/><mxPoint x="230.00000000000023" y="740" as="targetPoint"/></mxGeometry></mxCell><mxCell id="50" value="Name" style="ellipse;whiteSpace=wrap;html=1;fillColor=#fa6800;fontColor=#000000;strokeColor=#C73500;" parent="1" vertex="1"><mxGeometry x="-20" y="70" width="120" height="80" as="geometry"/></mxCell><mxCell id="51" value="&lt;u&gt;&lt;b&gt;ID&lt;/b&gt;&lt;/u&gt;" style="ellipse;whiteSpace=wrap;html=1;fillColor=#fa6800;fontColor=#000000;strokeColor=#C73500;" vertex="1" parent="1"><mxGeometry x="500" y="510" width="120" height="80" as="geometry"/></mxCell><mxCell id="52" value="&lt;u&gt;&lt;b&gt;ID&lt;/b&gt;&lt;/u&gt;" style="ellipse;whiteSpace=wrap;html=1;fillColor=#fa6800;fontColor=#000000;strokeColor=#C73500;" vertex="1" parent="1"><mxGeometry x="-20" y="380" width="120" height="80" as="geometry"/></mxCell><mxCell id="53" value="" style="endArrow=none;html=1;strokeColor=default;entryX=0;entryY=0.5;entryDx=0;entryDy=0;fontStyle=0;strokeWidth=3;exitX=1;exitY=0.5;exitDx=0;exitDy=0;" edge="1" parent="1" source="52" target="4"><mxGeometry width="50" height="50" relative="1" as="geometry"><mxPoint x="160.00000000000023" y="400" as="sourcePoint"/><mxPoint x="119.99999999999977" y="320" as="targetPoint"/></mxGeometry></mxCell><mxCell id="55" value="" style="endArrow=none;html=1;strokeColor=default;entryX=0.5;entryY=1;entryDx=0;entryDy=0;fontStyle=0;strokeWidth=3;exitX=0.5;exitY=0;exitDx=0;exitDy=0;" edge="1" parent="1" source="51" target="2"><mxGeometry width="50" height="50" relative="1" as="geometry"><mxPoint x="170.00000000000023" y="410" as="sourcePoint"/><mxPoint x="129.99999999999977" y="330" as="targetPoint"/></mxGeometry></mxCell></root></mxGraphModel></diagram></mxfile>